<svg id="Calque_3" data-name="Calque 3" xmlns="http://www.w3.org/2000/svg" viewBox="0 0 879.34 515.02"><path d="M497.77,758.16c-76-.91-149.68-13.64-221.1-39.19-57-20.4-110.26-48.26-159-84.26-18.29-13.5-35.47-28.5-53.13-42.84-3.44-2.79-5.06-6.37-4-10.8,1.15-4.73,6.23-7,11.41-4.43,7.45,3.64,14.62,7.82,21.9,11.79a832.91,832.91,0,0,0,107.34,49c44.45,16.62,89.88,30,136.54,38.48,31.47,5.71,63.29,9.64,95.07,13.36,17.87,2.09,36,2.56,54,3,20,.47,40,1.13,59.91-.24,28.66-2,57.31-4.92,85.77-8.86,53.5-7.41,105.63-20.81,156.6-38.6,16.43-5.73,32.5-12.47,48.82-18.52a34.11,34.11,0,0,1,10.4-2c6.75-.24,11.09,2.75,13,8.18,1.66,4.74-.34,11.18-5.17,14.64-9.53,6.82-19,13.67-28.94,19.92-39,24.68-80.9,43.18-124.68,57.44-42.18,13.74-85.32,23.57-129.43,28.36C548.06,755.35,522.87,756.38,497.77,758.16Z" transform="translate(-60.22 -243.14)"/><path d="M101,331.59c12.21-5.5,23.47-11.39,35.31-15.72a79.7,79.7,0,0,1,44.16-3.58c11.93,2.48,21.43,8.43,27.7,19,2,3.31,3.69,3.19,6.55,1.19,15.16-10.59,31.75-17.86,50.14-20.47,16.95-2.4,33.43-1.94,48,9,12.26,9.21,17,22.21,17.15,36.67.4,42.95.17,85.92.14,128.88,0,6.11-1.68,7.64-8,7.7s-12.7.06-19,0c-6.74-.06-8.21-1.55-8.21-8.49,0-36.94,0-73.88-.05-110.81,0-8.54-1.52-16.76-5.69-24.44a19,19,0,0,0-15.59-10.35c-19.52-1.86-37.39,3.58-53.88,13.66-1.73,1.05-2.69,4.64-2.71,7.06-.17,34-.11,68-.11,102,0,7.65.07,15.3,0,22.94-.09,6.57-2,8.36-8.53,8.41q-9.51.06-19,0c-6.48-.05-7.68-1.23-7.69-7.75,0-35.15.09-70.3-.1-105.45a113.62,113.62,0,0,0-2-20.82c-2.68-13.94-10.85-20.15-25-20.41-16.44-.29-31.31,4.94-45.71,12.21-4,2-5.29,4.88-5.28,9.33.16,40.19.09,80.39.09,120.58,0,1.79.06,3.59-.07,5.37-.44,6.21-2.25,7.89-8.58,7.93-6.67,0-13.35.08-20,0-5.09-.08-7-2-7.43-7-.14-1.62-.09-3.25-.09-4.88V329c0-10.84,1.8-12.62,12.85-12.62a99.85,99.85,0,0,1,11.22.27c5.78.67,7.5,2.68,8.31,8.36C100,327.39,100.62,329.71,101,331.59Z" transform="translate(-60.22 -243.14)"/><path d="M492.23,477.19c-8.76,4.69-16.46,9.21-24.49,13A92.32,92.32,0,0,1,413,498.37c-24.3-3.83-38.83-21.11-39-45.75-.26-42.79-.11-85.6-.09-128.4,0-6.22,1.46-8.12,7.53-8.5a158.73,158.73,0,0,1,20,0c6.2.39,7.75,2.6,7.76,9.43,0,37.1,0,74.21.08,111.31a70.29,70.29,0,0,0,1.51,14c2.69,12.87,11.29,19.59,24.45,20.27,17.93.91,33.91-4.8,49.22-13.39,3.58-2,4.81-4.55,4.8-8.62-.13-40.2-.08-80.4-.08-120.6,0-10.41,2.13-12.6,12.53-12.64,5.53,0,11.08-.17,16.58.31s7.1,2.28,7.1,7.88q.08,81,0,162.1c0,5.46-2,7.34-7.38,7.45s-11.07,0-16.6,0c-4.48,0-6.94-2-7.45-6.57C493.65,483.66,492.9,480.7,492.23,477.19Z" transform="translate(-60.22 -243.14)"/><path d="M617.52,500a120.79,120.79,0,0,1-51.28-9.16c-6.11-2.52-9-6.58-8.7-13.1.13-2.92-.06-5.86.06-8.78.23-5.21,2.08-6.62,7.25-5.46,9.67,2.19,19.22,5.51,29,6.45,12.36,1.2,25,1.72,37.33.27,14.2-1.68,21.69-10.8,22.14-22.58.35-9.53-4.2-16.05-12.47-19.65-11.77-5.11-23.81-9.63-35.81-14.18s-23.31-9.74-32.41-19.23c-18.88-19.71-15.58-55.07,6.87-70.63,11-7.61,23.23-11.24,36.46-12.56,18.4-1.83,35.83,2.15,53.19,7.44,5.51,1.67,8,5.34,8.43,10.64a71.42,71.42,0,0,1,.07,10.24c-.32,5.39-2.78,7.09-8.1,5.93-9.68-2.1-19.28-5.25-29.06-6A138.87,138.87,0,0,0,609.56,341c-8.53,1.26-14.09,7.18-15.43,16.13s1.23,16.74,9.14,21c10.26,5.51,21.24,9.67,31.92,14.39,9.81,4.33,19.83,8.22,29.39,13,32.18,16.18,27.76,63.07,4.51,79.67C653.3,496.52,636.15,500.91,617.52,500Z" transform="translate(-60.22 -243.14)"/><path d="M788.13,405.85c-.85-17.21,1.91-33.76,9.25-49.4,11.58-24.64,31.34-38.41,57.89-42.8,19-3.15,37.63-.75,56,4.18,4.08,1.1,7.31,4,7.71,8.55a78.92,78.92,0,0,1,.06,14.5c-.43,4.27-3.34,5.89-7.74,5.14-9.75-1.67-19.49-4.12-29.3-4.44-16.31-.52-32.28,1.48-44.36,14.59-5.57,6.05-8.65,13.35-10.45,21.21-4.58,19.92-5.29,39.86.3,59.75,6,21.25,22,30,42.67,31.56a107.6,107.6,0,0,0,40-4.93c5.62-1.74,8.35-.39,9,5.36a56.55,56.55,0,0,1-.57,16.38c-.42,2.24-3.5,4.94-5.91,5.69-8.35,2.57-16.83,5.41-25.45,6.25-19.06,1.86-38.08,1.24-55.95-7.13-20.68-9.67-33.71-25.92-39-47.82-2.88-11.9-3.77-24.29-5.56-36.45Z" transform="translate(-60.22 -243.14)"/><path d="M849.15,592.61q-30.54,2.86-61.07,5.71a59.62,59.62,0,0,1-7.79.29c-5.33-.2-7.54-4.08-4.74-8.66a16.44,16.44,0,0,1,4.83-4.67c21.35-14.52,45.34-21.62,70.69-24.68,21.41-2.59,42.77-2.35,64,1.85a101.58,101.58,0,0,1,11.76,3.19c9.54,3.12,12.3,7.09,12.66,17.2.86,23.83-4.56,46.47-12.91,68.55-8.85,23.4-21.27,44.6-39.24,62.22A34.4,34.4,0,0,1,877,720.68c-6.22,2.62-9.87-.76-8.53-7.45a37.94,37.94,0,0,1,2.27-6.41c10.08-25.24,20.09-50.53,25-77.39a87.91,87.91,0,0,0,.9-19.8c-.28-5.66-4-9.36-9.37-11.36-10.56-3.92-21.52-4.74-32.64-4.53-1.79,0-3.58,0-5.37,0C849.22,593.37,849.18,593,849.15,592.61Z" transform="translate(-60.22 -243.14)"/><path d="M716.77,405.13q0-38.81,0-77.62c0-10.75.41-11.15,11.38-11.15,5.37,0,10.74.06,16.11,0,4.82,0,7.18,2.47,7.55,7.09.13,1.62.13,3.25.13,4.87q0,76.91,0,153.79a44.05,44.05,0,0,1-.13,4.88c-.58,5.46-2.32,7.07-7.81,7.14-5.86.06-11.72,0-17.58,0-8.6,0-9.65-1-9.65-9.46Q716.76,444.93,716.77,405.13Z" transform="translate(-60.22 -243.14)"/><path d="M733.54,243.14c14.46,0,22.24,7.17,22.27,20.5,0,12.92-9.3,21.6-23.12,21.52-12.52-.08-20.86-8.6-20.82-21.26C711.91,251,720.16,243.12,733.54,243.14Z" transform="translate(-60.22 -243.14)"/></svg>