<svg id="Calque_2" data-name="Calque 2" xmlns="http://www.w3.org/2000/svg" viewBox="0 0 962.41 233.31"><path d="M214.4,553.77c-2.12,5.12-4,10.1-6.23,14.91A138,138,0,0,1,185,603.14a51.27,51.27,0,0,1-5.75,5.37c-8.77,7.14-18.6,8.91-29.33,5.4-4.34-1.42-8.56-3.17-12.89-4.63a48.26,48.26,0,0,0-16.69-2.77c-6.86.16-13.33,2-19.72,4.31a123.88,123.88,0,0,1-13.75,4.35c-7.72,1.85-14.75-.11-21.11-4.72-5.54-4-10.08-9-14.37-14.3a148.88,148.88,0,0,1-30.21-63.09,110.59,110.59,0,0,1-2.25-33.35c1.14-13.23,5.07-25.54,12.94-36.4a58.41,58.41,0,0,1,37.87-23.94A47.3,47.3,0,0,1,94,441.54c5.28,1.8,10.54,3.66,15.82,5.48,1.2.42,2.43.73,3.63,1.13a13.14,13.14,0,0,0,8.71,0q9.57-3.36,19.19-6.56c7.54-2.49,15.24-4,23.22-3.31,14.71,1.32,27.91,6.07,38.3,17.06,1.74,1.84,3.26,3.87,5.07,6-.93.65-1.66,1.16-2.41,1.66-7.31,4.86-13.49,10.78-17.76,18.54a46.17,46.17,0,0,0-5.62,19.87c-.49,8.48.39,16.77,3.84,24.62,5.3,12.07,14.2,20.67,25.86,26.57C212.54,552.93,213.23,553.22,214.4,553.77Z" transform="translate(-18.53 -382.94)"/><path d="M352.41,569.45l.67-.1a.94.94,0,0,0,.23-.1.77.77,0,0,0,.18-.18.94.94,0,0,0,.12-.22c.07-.15.13-.31.19-.47s.22-.46.31-.69l68-168.36c0-.07.12-.1.25-.2h38.22c.52,3,.4,212-.11,213.87h-30V455.75a5.13,5.13,0,0,0-.59-.07.46.46,0,0,0-.23.09.75.75,0,0,0-.15.2,6.24,6.24,0,0,0-.35.68q-31.94,78-63.86,156.05a3.09,3.09,0,0,1-.23.31H340.47q-32.14-78.69-64.34-157.47a4.65,4.65,0,0,0-.6.19.25.25,0,0,0-.14.16,2.09,2.09,0,0,0-.08.5c0,.25,0,.5,0,.76q0,77.45,0,154.88a2.09,2.09,0,0,1-.08.5,3.07,3.07,0,0,1-.2.41h-29.6l-.12-.13c-.05-.07-.13-.13-.14-.21a8.71,8.71,0,0,1-.15-1.25q0-105.68,0-211.34a4.3,4.3,0,0,1,.23-.86h38.25c4.57,11.29,9.16,22.67,13.76,34L311,467.33q6.9,17.07,13.81,34.13t13.82,34.13C343.27,546.9,347.76,558.27,352.41,569.45Z" transform="translate(-18.53 -382.94)"/><path d="M591,457.09h31.82c.54,1.86.74,153,.19,155.88H592.48c-.11-2.86,0-5.71-.05-8.56s0-5.94,0-8.9V587l-.5-.11c-.39.7-.8,1.38-1.16,2.09-6.57,12.72-16.58,21.24-30.53,24.9a69.11,69.11,0,0,1-25.47,1.42,52.19,52.19,0,0,1-21.29-7c-11.34-6.81-18.19-17-21.8-29.52A70.33,70.33,0,0,1,489,559.2q0-49.86,0-99.7c0-.74.06-1.49.1-2.37H521c0,1.06.06,2.13.06,3.2q0,45.14,0,90.28a57.23,57.23,0,0,0,2,16.58c3.62,12.15,12.61,19.38,25.21,20.67a45.18,45.18,0,0,0,17.87-1.32c12.38-3.74,19.65-12.38,23.08-24.56A54.57,54.57,0,0,0,591,547.13q0-43.36,0-86.72Z" transform="translate(-18.53 -382.94)"/><path d="M641.69,567.43h31.5c.22.86.43,1.67.64,2.47,2.87,11.18,9.92,18.07,21.21,20.43a53.46,53.46,0,0,0,27.36-1A23.26,23.26,0,0,0,734,581.82c5-6.24,5-16.14,0-21.9a20.33,20.33,0,0,0-6.53-4.75c-4.59-2.27-9.54-3.39-14.48-4.58-9.86-2.37-19.75-4.63-29.56-7.17a67.37,67.37,0,0,1-18.85-8c-11.57-7.21-18.19-17.4-18.94-31.22-.77-14.4,4.06-26.41,15-35.85a55.34,55.34,0,0,1,22-11.27,86.37,86.37,0,0,1,30.71-2.61c9.9.9,19.35,3.25,28,8.16,12.45,7,20.55,17.41,23.74,31.45.36,1.56.57,3.16.78,4.76.18,1.33.25,2.67.36,4-1.93.58-24.59.79-29.85.31A5.06,5.06,0,0,1,736,502c-2-12.16-9.14-19.55-21-22.27a41.93,41.93,0,0,0-23.53,1.19,22.54,22.54,0,0,0-10.92,7.55,17,17,0,0,0,4.21,25.1c4.65,3.1,9.89,4.75,15.26,6,11.34,2.71,22.72,5.27,34,8.15a65.12,65.12,0,0,1,20.37,8.92c9.17,6.17,14.09,14.78,15.22,25.76,1,10.12-.7,19.57-6.17,28.22a48.57,48.57,0,0,1-18.87,17,73,73,0,0,1-24.83,7.7,93.91,93.91,0,0,1-41.18-3.19c-11.1-3.52-20.56-9.53-27.55-19a49.93,49.93,0,0,1-9.27-23.88A14.88,14.88,0,0,1,641.69,567.43Z" transform="translate(-18.53 -382.94)"/><path d="M980.64,510.59H950.23c-.22-.83-.44-1.73-.7-2.61-3.77-13.1-11.69-22.32-25.2-25.69S898.39,481.2,888,491c-6.21,5.85-9.86,13.28-12.14,21.4a84.71,84.71,0,0,0-2.75,28.18,73.91,73.91,0,0,0,4.3,21.84c3,7.84,7.42,14.64,14.3,19.64a35.41,35.41,0,0,0,19.36,6.78c6.5.34,12.88-.22,18.94-2.75,10.6-4.42,16.66-12.65,19.58-23.48l.67-2.46h30.69a46.7,46.7,0,0,1-2.12,11.57c-6.43,21.17-20.73,34.42-41.58,40.92a81.16,81.16,0,0,1-29.13,3.13,74.11,74.11,0,0,1-29.3-7.49c-15.34-7.68-25.67-19.91-32-35.69a94.64,94.64,0,0,1-6.17-27.39,118.52,118.52,0,0,1,.56-25.61c1.62-12.24,5.24-23.81,11.88-34.28a63.92,63.92,0,0,1,37.31-28.09c16.27-4.69,32.68-4.7,48.74.9,22,7.65,35.65,22.95,40.69,45.77.37,1.65.56,3.34.8,5A13.08,13.08,0,0,1,980.64,510.59Z" transform="translate(-18.53 -382.94)"/><path d="M789.07,457.12h31.81v156c-10.53,0-21,0-31.29,0l-.35-.32c0-.07-.14-.13-.15-.2a5,5,0,0,1-.16-1q0-76.65,0-153.29C788.93,458,789,457.65,789.07,457.12Z" transform="translate(-18.53 -382.94)"/><path d="M165.11,383.07a39,39,0,0,1,0,8.7c-1.07,11.59-6.12,21.36-13.78,29.89-5.85,6.52-12.59,11.8-21,14.69-4,1.4-10,2.33-13.75,1.51a34.88,34.88,0,0,1,.15-9.94q5.2-28.41,31.46-40.6a48.81,48.81,0,0,1,15.8-4.38A7.31,7.31,0,0,1,165.11,383.07Z" transform="translate(-18.53 -382.94)"/><path d="M805.1,394.91c9.95-.21,18.31,8.17,18.32,18.42a18.46,18.46,0,1,1-18.32-18.42Z" transform="translate(-18.53 -382.94)"/></svg>