<svg id="Calque_1" data-name="Calque 1" xmlns="http://www.w3.org/2000/svg" viewBox="0 0 936.49 937.58"><path d="M963.72,498c-.38,259.63-212.56,471.59-475.09,467.84C232.92,962.23,28.51,754,27.24,499.68,25.92,236.63,240.88,24,503.45,28.41,757.42,32.65,964,240.07,963.72,498ZM558.94,390.55V352.69H431.83v37.86Zm.26,213.35H431.92v37.73H559.2ZM431.49,402.7c0,11.36.24,21.95-.11,32.53-.16,4.62,1.46,5.82,5.8,5.8,35.71-.15,71.42-.09,107.13-.2,4.84,0,11.51,1.11,14-1.49s1.07-9.24,1.14-14.1c.11-7.47,0-14.95,0-22.54Zm128,189c0-10.94-.29-21.14.11-31.32.22-5.39-1.31-7.09-6.87-7-32.11.26-64.23.12-96.34.13-6.42,0-12.86.31-19.26,0-4.54-.19-5.82,1.5-5.67,5.91.31,8.88.05,17.78.06,26.66,0,1.81.22,3.61.35,5.62Zm-143.14,12H289.15v38.09c1.82.11,3.29.27,4.76.27q36.55,0,73.11,0c14.74,0,29.47.09,44.2-.12,1.72,0,4.86-1.7,4.89-2.68C416.45,627.61,416.33,615.93,416.33,603.67Zm285.48.29H574.61c0,11,.21,21.61-.09,32.17-.14,4.81,1.58,6,6.19,6,24.76-.19,49.53-.05,74.29,0h46.81ZM431.54,654.54c0,10.71,0,20.69,0,30.68,0,7.57,0,7.58,7.35,7.58h99.76c5.47,0,11,.26,16.42-.08,1.51-.1,4.14-1.9,4.17-3,.3-11.64.19-23.3.19-35.22Zm-142.8-.26c0,12.24-.13,23.74.21,35.23,0,1.16,2.9,3.2,4.46,3.2,39.11.19,78.22.09,117.33.25,4.67,0,5.81-1.82,5.7-6.07-.23-9.07-.35-18.16,0-27.23.15-4.35-1.27-5.5-5.44-5.48-31.36.14-62.73.09-94.09.1Zm0-63a12.83,12.83,0,0,0,2.42.65q60.43.06,120.87.14c3.78,0,4.31-1.87,4.29-4.95-.07-9.28-.2-18.56.14-27.83.17-4.53-1.34-6-5.78-5.91-8.7.25-17.4.11-26.1.11-30.46,0-60.91,0-91.36.12-1.5,0-4.26,1.76-4.28,2.77C288.64,568,288.75,579.74,288.75,591.26Zm413.44,63H657.76c-25.9,0-51.79.1-77.69-.06-4.19,0-5.67,1.21-5.55,5.46.27,9.27.19,18.55.1,27.82,0,3.4.87,5.32,4.75,5.31q59.26-.06,118.53.07c2.78,0,4.31-.8,4.3-3.78C702.18,677.81,702.19,666.49,702.19,654.31Zm0-62.31c0-12.2.12-23.89-.22-35.56,0-1.05-3.09-2.88-4.74-2.88-39.12-.13-78.24,0-117.36-.06-3.8,0-5.41,1.13-5.31,5.21.23,9.08.26,18.17-.1,27.24-.18,4.8,1.54,6.1,6.17,6.07,24.94-.17,49.89,0,74.84,0ZM431.49,453.43c0,11,.24,21.36-.11,31.72-.17,4.92,1.18,6.66,6.29,6.52,12.66-.35,25.33-.14,38-.15,25.91,0,51.82,0,77.72-.18,2,0,5.68-1.63,5.71-2.59.4-11.66.26-23.33.26-35.32Zm143.19,87.4H702.25c0-10.82-.3-21.21.12-31.57.23-5.48-1.83-6.59-6.85-6.57-34.23.19-68.47.1-102.7.11a112,112,0,0,0-13.6.34c-1.63.2-4.3,2.28-4.34,3.56C574.53,517.84,574.68,529,574.68,540.83Zm-143.13,0H559.47c0-10.6-.39-20.79.15-30.93.32-6-1.88-7.25-7.4-7.21-31.75.23-63.51.1-95.26.12-7,0-14,.13-21,.15-2.91,0-4.53.93-4.48,4.28C431.63,518.19,431.55,529.15,431.55,540.82Zm143-87.46c0,11.23.17,21.79-.09,32.34-.11,4.42,1.27,6.07,5.78,5.93,9.63-.28,19.27-.16,28.91-.16,28.9,0,57.8-.13,86.7.09,5.1,0,6.52-1.64,6.35-6.53-.31-8.68,0-17.39,0-26.09,0-1.8-.24-3.59-.38-5.58ZM844.84,339.74c0-11.88-.08-23,0-34.17.05-3.81-1.94-4.18-5-4.16-13.23.1-26.46,0-39.69,0-25.51,0-51-.06-76.53.14-1.86,0-5.28,1.83-5.31,2.89-.39,11.64-.25,23.29-.25,35.27ZM718.41,390.48H844.3V352.64H718.41Zm126.42,12.41a21.87,21.87,0,0,0-2.62-.52q-59.84,0-119.66-.11c-3.54,0-4.59,1.34-4.55,4.66.12,9.46.27,18.94-.07,28.39-.17,4.73,1.73,5.67,6,5.64,28.35-.14,56.7-.06,85.06-.06,10.39,0,20.79.12,31.18-.16,1.59-.05,4.45-2,4.48-3.09C845,426.14,844.83,414.63,844.83,402.89ZM146.13,591.47a21.6,21.6,0,0,0,2.93.48q59.77,0,119.57,0c3.32,0,4.24-1.31,4.22-4.35-.06-9.26-.22-18.54.18-27.79.21-5-1.34-6.44-6.35-6.41-27.58.2-55.16,0-82.74,0-10.95,0-21.91-.13-32.86.13-1.67,0-4.7,1.8-4.73,2.84C146,568.05,146.13,579.72,146.13,591.47Zm698.39-38H834.28l-41.39,0c-22.88,0-45.75.2-68.62,0-5.15,0-6.43,1.73-6.25,6.57.34,8.5.27,17-.08,25.54-.19,4.77,1,6.57,6.24,6.54,38.18-.22,76.37-.1,114.55-.11,1.84,0,3.67-.21,5.79-.34ZM146.61,603.68v38H272.36v-38Zm572.05.14v37.8H844.4v-37.8ZM146.12,654.56c0,12,0,23.3,0,34.64,0,3.09,1.57,3.74,4.3,3.71,9.83-.12,19.67-.08,29.5-.09,29.13,0,58.25,0,87.38-.14,1.86,0,5.29-1.81,5.33-2.86.38-11.65.24-23.31.24-35.26Zm698.62.13H718.13c0,11.19.13,21.93-.07,32.68-.08,4.17,1.33,5.58,5.57,5.52,15.88-.19,31.77,0,47.65,0q34.05,0,68.09-.06c2.3,0,5.34.79,5.35-3.13C844.76,678.16,844.74,666.65,844.74,654.69ZM146.17,453.4c0,11.09.28,21.49-.11,31.86-.2,5.18,1.67,6.31,6.48,6.29,36.11-.14,72.21,0,108.32,0,11.85,0,11.89,0,12-12,.06-8.63,0-17.25,0-26.13Zm572,87.52H844.42V502.76H835l-41.92,0-69.69.06c-2.76,0-5.34-.07-5.3,3.95C718.22,517.94,718.15,529.09,718.15,540.92Zm-.1-87.54c0,11.8-.13,23.12.19,34.43,0,1.28,2.58,3.41,4.11,3.57,4.49.45,9.06.08,13.6.08l103.79.08c2.43,0,5.13.53,5.11-3.37-.05-11.49,0-23,0-34.79ZM272.92,540.91c0-11-.26-21.4.11-31.77.19-5.19-1.75-6.32-6.55-6.29-27.6.14-55.21,0-82.82-.05-11,0-21.93-.14-32.89.14-1.57,0-4.41,2-4.44,3.18-.33,11.48-.2,23-.2,34.79Z" transform="translate(-27.23 -28.35)"/></svg>