<svg id="Calque_2" data-name="Calque 2" xmlns="http://www.w3.org/2000/svg" viewBox="0 0 1000 1000"><path d="M0,531.25v-62.5c2.55-18.65,4.6-37.39,7.72-55.95C41.41,212.1,203.23,47.06,403.18,9.61c21.7-4.06,43.71-6.45,65.57-9.61h62.5c9,1.16,18,2.42,27,3.48C770.36,28.32,944.11,186,988.57,394.65c5.2,24.4,7.68,49.39,11.43,74.1v62.5c-1.48,11.91-2.8,23.83-4.45,35.72C966,779.89,808,947.85,596.81,990.42c-21.62,4.35-43.69,6.44-65.56,9.58h-62.5c-9-1.17-18-2.43-27-3.49-213.37-25-387.41-183.85-431-394C5.83,579,3.51,555,0,531.25Zm415.07-267.4c-16.72.87-44.69,1.72-72.56,3.9-52.33,4.09-104,12.33-154.33,27.7-25.57,7.81-39.44,33-32.5,57.41,7.17,25.19,32.19,39.67,58.24,32.34,58.61-16.48,118.36-24.41,179.08-26.52,93.65-3.25,185.81,6.23,276.12,31.68A562.14,562.14,0,0,1,795,442.63c26.19,14.88,54.6,5.47,66.31-20.8,9.94-22.29,2.43-47.6-19.86-59.7-25.11-13.63-50.62-26.95-77.07-37.61C656,280.85,542.37,265.37,415.07,263.85Zm11.54,173.54c-76.24.24-142.55,8.52-207.33,27.67-23.4,6.92-35.22,26.75-29.36,48.52,5.61,20.87,26.63,32.39,49.58,25.89,73.47-20.84,148.25-27.65,224.26-22,95.37,7.12,186.11,30.16,269.3,78.92a63.38,63.38,0,0,0,10.51,5.12,38.93,38.93,0,0,0,48.18-19c9.31-18.45,3.85-39.25-13.86-50.36-11-6.91-22.39-13.33-34-19.24C641.52,460.61,532,438.8,426.61,437.39Zm-3.46,160.82c-36.27,3.25-72.66,5.51-108.76,10.07-27.37,3.46-54.47,9.44-81.52,15.1-14.5,3-23.53,15.28-23.79,29.56-.25,13.53,8.11,25.92,21.45,29.14a49.54,49.54,0,0,0,21.1,0c46.57-9.8,93.46-16.94,141.06-19,84.75-3.7,166.9,7.74,244.71,43.09,16.85,7.65,32.85,17.16,49.3,25.7,20.92,10.85,43.86-.06,46.65-22.54,1.87-15-5.63-25.23-18.2-32.79C625.33,622.51,527.13,600.5,423.15,598.21Z" transform="translate(0 0)"/></svg>