<svg id="Calque_1" data-name="Calque 1" xmlns="http://www.w3.org/2000/svg" viewBox="0 0 916.76 499.5"><defs><style>.cls-1{fill:#1d1d1b;}</style></defs><path id="A" class="cls-1" d="M894.7,572A148.28,148.28,0,0,0,767.26,500.5H418a278.41,278.41,0,0,0-248.73,152L0,982.65,33.83,1000,149.51,774.41l679,0L721.72,982.65,755.55,1000,900.16,718A148.3,148.3,0,0,0,894.7,572ZM866.33,700.65,848,736.41l-679,0,34.13-66.56A240.52,240.52,0,0,1,418,538.52H767.26a111.33,111.33,0,0,1,99.07,162.13Z" transform="translate(0 -500.5)"/></svg>