<svg id="var_5.8" data-name="var 5.8" xmlns="http://www.w3.org/2000/svg" viewBox="0 0 884.02 170.67"><defs><style>.cls-1,.cls-2,.cls-4{fill:none;}.cls-1,.cls-2,.cls-3,.cls-4,.cls-5,.cls-7{stroke:#ffffff;stroke-width:4px;}.cls-1,.cls-2,.cls-3,.cls-4,.cls-5{stroke-miterlimit:10;}.cls-2,.cls-5{stroke-linecap:square;}.cls-3,.cls-5,.cls-6,.cls-7{fill:#ffffff;}.cls-4{stroke-linecap:round;}.cls-7{stroke-linejoin:bevel;}</style></defs><path class="cls-1" d="M90,579.53c-24.71,0-30-10-30-10v10H90l150-160v160H210s30-4,30-20" transform="translate(-58 -414.21)"/><path class="cls-1" d="M363.59,427" transform="translate(-58 -414.21)"/><path class="cls-2" d="M443.59,499.53H480s40,0,40-40-40-40-40-40H380v160h30s-30-10-30-20" transform="translate(-58 -414.21)"/><path class="cls-3" d="M431.79,499.53H448.5l71.65,80H483.44s10,0,10-10Z" transform="translate(-58 -414.21)"/><path class="cls-4" d="M283.47,574.18s89.86,11.12,89.86-35.35S322.88,493,311.35,493s-55.41,4.82-55.41-36.94S310,419.53,310,419.53h70" transform="translate(-58 -414.21)"/><path class="cls-2" d="M660.29,419.53s-.29,30-.29,90c0,70-60,70-70,70s-70,0-70-70v-90h30s-30,0-30,20" transform="translate(-58 -414.21)"/><path class="cls-2" d="M660,419.53" transform="translate(-58 -414.21)"/><path class="cls-2" d="M580,569.53" transform="translate(-58 -414.21)"/><path class="cls-2" d="M939.49,417.25l-30-.06s30,1.16,30,22.34V417.25" transform="translate(-58 -414.21)"/><path class="cls-2" d="M660.29,559.26c0,10,29.71,20.27,29.71,20.27H660.29v-140c0-20-30-20-30-20H660l140,160v-160l140,160L939.49,436" transform="translate(-58 -414.21)"/><path class="cls-4" d="M773.75,549.53s6.25,10,16.25,10,10-10,10-10" transform="translate(-58 -414.21)"/><path class="cls-4" d="M913.75,549.53s6.25,10,16.25,10,10-10,10-10" transform="translate(-58 -414.21)"/><path class="cls-4" d="M826.25,449.53s-6.81-10-16.81-10-9.44,10-9.44,10" transform="translate(-58 -414.21)"/><path class="cls-4" d="M686.32,449.53s-6.32-10-16.32-10-9.71,10.23-9.71,10.23" transform="translate(-58 -414.21)"/><path class="cls-5" d="M259.82,558.29c-4.23-16.58,16.77-13.76,13.8-27.83-2.82-12.88-19.8-3.05-22.27,5.25S252.24,555.65,259.82,558.29Z" transform="translate(-58 -414.21)"/><path class="cls-5" d="M380,449.53s0-30-30-30h60c-30,0-30,30-30,30" transform="translate(-58 -414.21)"/><path class="cls-6" d="M380,579.53h30s-30-10.65-30-17.35Z" transform="translate(-58 -414.21)"/><path class="cls-6" d="M662.29,445.71l2.58-5,12.63-1.22L660,418.76H632.18s26.94,4.53,26.94,13.48S662.29,445.71,662.29,445.71Z" transform="translate(-58 -414.21)"/><path class="cls-6" d="M520.67,434.65s8.56-15,27.38-15l-28-.84Z" transform="translate(-58 -414.21)"/><polygon class="cls-6" points="633.82 166.21 602.29 166.21 601.82 147.26 617.12 159.15 633.82 166.21"/><polygon class="cls-6" points="742.53 167.03 721 141.5 731.76 146.32 742.53 141.5 742.53 167.03"/><polygon class="cls-6" points="742.07 33.72 741.99 4.56 762.91 29.22 751.44 25.32 743.59 29.26 742.07 33.72"/><polygon class="cls-6" points="882.88 167.03 863.84 143.56 873.36 145.85 882.88 139.26 882.88 167.03"/><polygon class="cls-6" points="881.49 17.15 874.33 9.38 864.25 3.05 882.49 3.03 881.49 17.15"/><polygon class="cls-6" points="1 166.68 1 153 10.09 162.18 31.53 166.24 1 166.68"/><polygon class="cls-6" points="182.88 166.68 155.12 165.32 172.06 159.74 182 150.32 182.88 166.68"/><path class="cls-5" d="M182.81,543.37s.32-10.5-10.52-10.5c0,0,10.52,0,10.52-10.53,0,0-.05,10.53,10.6,10.53C182.81,532.87,182.81,543.37,182.81,543.37Z" transform="translate(-58 -414.21)"/><path class="cls-6" d="M521,529.88l-.88-111.5h15.9s.52,18.51.52,78.68c0,83.06,53.58,83.35,53.58,83.35S534.12,583.53,521,529.88Z" transform="translate(-58 -414.21)"/><polygon class="cls-6" points="863.84 3.91 880 5.32 881.99 167.03 863.84 145.32 863.84 3.91"/><polygon class="cls-6" points="584.19 3.91 600.34 5.32 602.34 167.03 584.19 145.32 584.19 3.91"/><polygon class="cls-6" points="321.85 3.91 338.01 5.32 340 167.03 321.85 145.32 321.85 3.91"/><polygon class="cls-6" points="163.85 24.68 180 5.32 182 165.32 163.85 164.21 163.85 24.68"/><polygon class="cls-6" points="724.38 0.2 740.06 0.26 742.53 161.97 724.38 144.26 724.38 0.2"/><line class="cls-7" x1="321.85" y1="4.56" x2="462.15" y2="166.21"/><line class="cls-7" x1="462" y1="4.56" x2="602.29" y2="166.21"/><path class="cls-6" d="M285.29,572.71s72.3,9,72.3-36.83S311.35,493,311.35,493s63.06-4.41,63.06,45S285.29,572.71,285.29,572.71Z" transform="translate(-58 -414.21)"/><path class="cls-6" d="M328.53,420.65s-56.06-7.06-56.06,36.7,46.71,35.55,46.71,35.55-63.24,9.63-63.24-34.84C255.94,406,328.53,420.65,328.53,420.65Z" transform="translate(-58 -414.21)"/></svg>