<svg id="Calque_2" data-name="Calque 2" xmlns="http://www.w3.org/2000/svg" viewBox="0 0 999.98 1000"><path d="M500.24,1000q-125.19,0-250.38,0c-28.06,0-56.16-.65-83.89-5.17-80.14-13-141.2-71.26-158.92-150.68-4.38-19.59-5.4-39.51-6.1-59.43-.68-19.5-.89-39-.9-58.55Q0,488.73,0,251.37c0-28.49.55-57,5.16-85.19C18.43,85.53,76.45,24.72,156.13,7c19.45-4.32,39.22-5.34,59-6,19.06-.68,38.15-.89,57.22-.9Q511,0,749.68.05c28.35,0,56.74.64,84.75,5.23,79.81,13.09,140.82,71.37,158.5,150.62,4.4,19.73,5.53,39.79,6.09,59.87.7,25.28.89,50.58.9,75.87q.12,228.9,0,457.81c0,28.2-.57,56.46-5.15,84.32-13.27,80.7-70.69,141.41-151,158.88a285.1,285.1,0,0,1-55.91,6.08c-64.92,1-129.86,1-194.79,1.21C562.15,1000.06,531.2,1000,500.24,1000ZM468.41,527.83a7.81,7.81,0,0,0,.41-1.58q0-51.63.09-103.27c0-2.43-1.06-3.31-3.31-3.52-21.83-2-43.6-2-65.24,2C359.63,429,325.74,448.84,298,479.28c-43.18,47.42-60.49,103.07-50.67,166.48C254.2,689.9,274,727.35,307.7,757.44c45.74,40.85,99.05,59.08,159.53,50.92,71.33-9.61,122.71-48.6,153.88-113.57,13.46-28,17.63-58.06,17.52-89-.26-67.26-.08-134.52-.08-201.78v-5.76c35.83,24.88,74.17,39.85,116.74,45.11.09-1.81.24-3.35.24-4.9q0-49.24,0-98.5c0-7.66,0-15.32,0-23,0-2.43-.64-3.59-3.41-3.7-31.56-1.27-60.14-10.1-85.29-30.32-28.5-22.9-47.7-51.15-55.74-86.87-1.28-5.73-1.89-6.22-7.92-6.23H539.84c-9.8,0-9.8,0-9.8,9.87q0,208.73,0,417.46a55.43,55.43,0,0,1-.24,6,88.45,88.45,0,0,1-103,77.38c-24.57-4.09-44-17.08-58.69-36.24S349.7,622.82,353.25,599c6.73-45.13,51.28-79.5,96.54-74.13C455.93,525.59,462,526.8,468.41,527.83Z" transform="translate(0)"/></svg>